Coordinates
version=1
nRows=10
nColumns=63
inDegrees=yes

Units are S.I. units (second, meters, Newtons, ...)
If the header above contains a line with 'inDegrees', this indicates whether rotational values are in degrees (yes) or radians (no).

endheader
time	pelvis_tilt	pelvis_list	pelvis_rotation	pelvis_tx	pelvis_ty	pelvis_tz	hip_flexion_r	hip_adduction_r	hip_rotation_r	knee_angle_r	knee_angle_r_beta	ankle_angle_r	subtalar_angle_r	mtp_angle_r	hip_flexion_l	hip_adduction_l	hip_rotation_l	knee_angle_l	knee_angle_l_beta	ankle_angle_l	subtalar_angle_l	mtp_angle_l	L5_S1_Flex_Ext	L5_S1_Lat_Bending	L5_S1_axial_rotation	L4_L5_Flex_Ext	L4_L5_Lat_Bending	L4_L5_axial_rotation	L3_L4_Flex_Ext	L3_L4_Lat_Bending	L3_L4_axial_rotation	L2_L3_Flex_Ext	L2_L3_Lat_Bending	L2_L3_axial_rotation	L1_L2_Flex_Ext	L1_L2_Lat_Bending	L1_L2_axial_rotation	L1_T12_Flex_Ext	L1_T12_Lat_Bending	L1_T12_axial_rotation	Abs_r3	Abs_r2	Abs_r1	Abs_t1	Abs_t2	neck_flexion	neck_bending	neck_rotation	arm_flex_r	arm_add_r	arm_rot_r	elbow_flex_r	pro_sup_r	wrist_flex_r	wrist_dev_r	arm_flex_l	arm_add_l	arm_rot_l	elbow_flex_l	pro_sup_l	wrist_flex_l	wrist_dev_l
      1.38983051	      5.43440278	     -4.85912075	     99.09006823	      0.21112983	      1.10610752	      0.43903719	      0.57575063	      4.20134363	     -8.33152095	      5.91403338	      0.10321935	     25.62610097	     15.86784415	      0.00000000	      4.45682532	     -6.54581078	      0.05638078	     10.50726977	      0.18338645	     23.34647067	      8.70717080	      0.00000000	     -0.12421629	      0.87958979	     -0.01329371	     -0.23068206	      1.16985442	     -0.01412457	     -0.20407494	      2.13863462	     -0.01412457	     -0.14196679	      2.13863462	     -0.01163200	     -0.11534724	      1.79365950	     -0.01080114	     -0.07097719	      1.36248459	     -0.00997029	     -0.88726451	      9.95009565	     -0.07393565	      0.00000000	      0.00000000	     24.31369750	     -4.57687426	      5.99700646	      1.13517094	    -16.56385130	     33.08142494	     27.52416243	     78.60142163	     -6.54320838	      1.58468477	     16.84825664	     -7.40660335	    109.18569311	     16.77133266	     29.67881058	     -6.32377736	     -4.01935214
      1.40677966	      5.65563292	     -4.66923323	     99.14071031	      0.21104238	      1.10636642	      0.43877394	      0.34006578	      4.49556527	     -8.07902105	      5.76325795	      0.10058783	     25.45320682	     15.49395495	      0.00000000	      4.27992186	     -6.89515944	     -0.92781566	     10.48479783	      0.18299424	     24.05306466	     10.43189197	      0.00000000	     -0.13955281	      0.91425319	     -0.01011034	     -0.25916353	      1.21595674	     -0.01074223	     -0.22927131	      2.22291521	     -0.01074223	     -0.15949491	      2.22291521	     -0.00884655	     -0.12958874	      1.86434511	     -0.00821465	     -0.07974048	      1.41617819	     -0.00758275	     -0.99681178	     10.34221494	     -0.05623067	      0.00000000	      0.00000000	     24.09136939	     -4.70590030	      6.28223223	      1.04578301	    -16.55939519	     32.38117763	     27.43758413	     79.62875178	     -6.02302496	      2.57378488	     17.57022780	     -6.29824847	    120.82662585	     15.35532804	     21.18277343	     -6.25655400	     -6.94091646
      1.42372881	      5.66765604	     -4.57801873	     99.15470206	      0.21102866	      1.10643417	      0.43853879	      0.14740454	      4.56934786	     -7.37477830	      5.58240906	      0.09743142	     25.33139954	     14.68082204	      0.00000000	      4.10751817	     -6.87680034	     -0.57046776	     10.27164171	      0.17927397	     24.28488902	     10.17224340	      0.00000000	     -0.14793177	      0.91597388	     -0.00793167	     -0.27472409	      1.21824526	     -0.00842740	     -0.24303710	      2.22709889	     -0.00842740	     -0.16907122	      2.22709889	     -0.00694022	     -0.13736944	      1.86785393	     -0.00644449	     -0.08452821	      1.41884354	     -0.00594876	     -1.05666182	     10.36167972	     -0.04411359	      0.00000000	      0.00000000	     24.07950410	     -4.86747815	      6.08134499	      1.06157311	    -16.61313324	     33.13678037	     27.26502668	     77.75742752	     -6.00888522	      2.82894502	     17.45075070	     -6.41682735	    119.80043180	     15.50826367	     22.87077714	     -6.44462905	     -7.22252355
      1.44067797	      5.65650592	     -4.64008286	     99.17879623	      0.21103859	      1.10634509	      0.43851243	      0.22382484	      4.54933606	     -7.20644347	      5.63545671	      0.09835727	     25.39808165	     14.44571322	      0.00000000	      4.21154750	     -6.82881944	     -0.44761204	     10.27220557	      0.17928381	     24.55563812	     10.17169544	      0.00000000	     -0.13180069	      0.91165509	     -0.01075485	     -0.24476706	      1.21250127	     -0.01142703	     -0.21653536	      2.21659819	     -0.01142703	     -0.15063501	      2.21659819	     -0.00941049	     -0.12239012	      1.85904706	     -0.00873832	     -0.07531091	      1.41215374	     -0.00806614	     -0.94143916	     10.31282472	     -0.05981526	      0.00000000	      0.00000000	     23.96204505	     -4.80958339	      6.04164657	      0.96891550	    -16.57788584	     33.15443275	     27.13820525	     77.53943319	     -5.99572995	      3.00653780	     17.39981672	     -6.45129765	    119.78878097	     15.56953614	     23.02653782	     -6.40295620	     -7.20218504
      1.45762712	      5.60679402	     -4.47101385	     99.44599009	      0.21079884	      1.10660685	      0.43854301	      0.02630405	      4.50785360	     -8.04394249	      5.63321896	      0.09831822	     25.42354566	     15.12393697	      0.00000000	      4.09988179	     -6.83477409	     -0.92495687	     10.23262873	      0.17859306	     24.84256772	     11.28671034	      0.00000000	     -0.14978196	      0.90334148	     -0.08870681	     -0.27816008	      1.20144417	     -0.09425099	     -0.24607678	      2.19638448	     -0.09425099	     -0.17118580	      2.19638448	     -0.07761846	     -0.13908753	      1.84209395	     -0.07207428	     -0.08558541	      1.39927595	     -0.06653011	     -1.06987755	     10.21877950	     -0.49336067	      0.00000000	      0.00000000	     23.73629240	     -4.61916087	      6.11511103	      1.03728999	    -16.39761748	     32.95856569	     26.95593302	     76.92436103	     -5.77524512	      3.66990944	     17.27775837	     -6.52422692	    120.05766173	     15.29071593	     22.99015151	     -5.93575570	     -8.10323897
      1.47457627	      5.54196608	     -4.43865060	     99.32395921	      0.21090284	      1.10679260	      0.43876645	      0.02881208	      4.42171178	     -8.12776392	      5.70791225	      0.09962186	     25.44606988	     15.37087779	      0.00000000	      4.08228580	     -6.79836174	     -1.51623285	     10.24298291	      0.17877378	     24.99576039	     11.94367281	      0.00000000	     -0.15118042	      0.89071586	     -0.08609142	     -0.28075716	      1.18465209	     -0.09147213	     -0.24837432	      2.16568654	     -0.09147213	     -0.17278410	      2.16568654	     -0.07532999	     -0.14038614	      1.81634778	     -0.06994928	     -0.08638449	      1.37971887	     -0.06456856	     -1.07986664	     10.07595595	     -0.47881464	      0.00000000	      0.00000000	     23.47518257	     -4.48433056	      5.94644358	      1.24693938	    -16.47175391	     34.24429559	     26.72577844	     75.17516433	     -6.06936454	      3.31532302	     17.18677240	     -6.63955702	    119.16810809	     15.33775360	     24.08418395	     -6.00073085	     -7.66709832
      1.49152542	      5.50726243	     -4.37910779	     99.26276238	      0.21073946	      1.10701121	      0.43902604	     -0.01534148	      4.38216561	     -8.00813560	      5.71102730	      0.09967623	     25.39650386	     15.26538848	      0.00000000	      4.02516903	     -6.74622868	     -1.61054787	     10.20082773	      0.17803803	     24.99425444	     11.98413123	      0.00000000	     -0.15356155	      0.88423727	     -0.08490948	     -0.28517916	      1.17603557	     -0.09021633	     -0.25228628	      2.14993449	     -0.09021633	     -0.17550550	      2.14993449	     -0.07429580	     -0.14259726	      1.80313664	     -0.06898896	     -0.08774507	      1.36968353	     -0.06368211	     -1.09687483	     10.00266882	     -0.47224107	      0.00000000	      0.00000000	     23.21604382	     -4.41219815	      5.68877978	      1.24349442	    -16.44447969	     34.08882805	     26.68520055	     74.85025683	     -6.10768043	      3.30367329	     17.18109411	     -6.59375127	    119.50305690	     15.24817969	     24.39124366	     -6.15934375	     -7.32996433
      1.50847458	      5.42337050	     -4.32988296	     98.98473339	      0.21074109	      1.10727176	      0.43935690	     -0.01178388	      4.26898044	     -7.87667401	      5.79261840	      0.10110026	     25.43180973	     15.41391960	      0.00000000	      3.88169001	     -6.64865007	     -1.95205936	     10.07218571	      0.17579280	     24.95554318	     12.05891588	      0.00000000	     -0.15768864	      0.87190595	     -0.01352940	     -0.29284358	      1.15963492	     -0.01437499	     -0.25906667	      2.11995213	     -0.01437499	     -0.18022235	      2.11995213	     -0.01183822	     -0.14642967	      1.77799062	     -0.01099264	     -0.09010329	      1.35058232	     -0.01014705	     -1.12635421	      9.86317450	     -0.07524646	      0.00000000	      0.00000000	     22.92065807	     -4.39506893	      5.20321227	      1.19456393	    -16.50060548	     34.08478266	     26.70278372	     74.60811439	     -6.24556296	      2.93643796	     17.35322935	     -6.45945312	    120.66969237	     15.16639561	     25.13994387	     -6.50321484	     -6.76512671
      1.52542373	      5.40604729	     -4.35446600	     98.65173666	      0.21086664	      1.10749041	      0.43986221	      0.12129112	      4.20337812	     -7.74530054	      5.93844383	      0.10364540	     25.43887748	     15.63712786	      0.00000000	      3.86667520	     -6.62040578	     -2.30371040	     10.04862465	      0.17538159	     24.94888857	     12.07258405	      0.00000000	     -0.15950860	      0.86700427	      0.05917082	     -0.29622343	      1.15311568	      0.06286899	     -0.26205669	      2.10803418	      0.06286899	     -0.18230238	      2.10803418	      0.05177447	     -0.14811969	      1.76799510	      0.04807629	     -0.09114322	      1.34298961	      0.04437811	     -1.13935401	      9.80772567	      0.32909034	      0.00000000	      0.00000000	     22.78214915	     -4.40542272	      4.81833630	      1.22298586	    -16.57167241	     34.12660497	     26.75429098	     74.52038322	     -6.43078241	      2.58101292	     17.43875684	     -6.25431767	    121.80382796	     14.87930502	     25.85622536	     -6.86436064	     -6.40895864
      1.54237288	      5.37281063	     -4.45214739	     98.34277519	      0.21093135	      1.10764959	      0.44045007	      0.34498897	      4.10622905	     -7.76010840	      6.11134973	      0.10666317	     25.45468741	     15.96195388	      0.00000000	      3.93440991	     -6.55319351	     -2.60333563	     10.03070816	      0.17506888	     24.89178536	     12.01457191	      0.00000000	     -0.15751891	      0.86184715	      0.13208212	     -0.29252836	      1.14625671	      0.14033725	     -0.25878781	      2.09549517	      0.14033725	     -0.18002836	      2.09549517	      0.11557186	     -0.14627206	      1.75747872	      0.10731672	     -0.09000630	      1.33500124	      0.09906159	     -1.12514180	      9.74938737	      0.73460114	      0.00000000	      0.00000000	     22.78587118	     -4.43981415	      4.48927481	      1.31754615	    -16.66901863	     34.44927256	     26.77071872	     74.01545554	     -6.63567934	      2.22535907	     17.48394218	     -6.09737123	    122.35285824	     14.63723576	     27.11819534	     -7.30542137	     -6.14788973
